<?xml version="1.0" encoding="UTF-8" standalone="no"?>
<!-- Creator: CorelDRAW X6 -->

<svg
   xmlns:dc="http://purl.org/dc/elements/1.1/"
   xmlns:cc="http://creativecommons.org/ns#"
   xmlns:rdf="http://www.w3.org/1999/02/22-rdf-syntax-ns#"
   xmlns:svg="http://www.w3.org/2000/svg"
   xmlns="http://www.w3.org/2000/svg"
   xmlns:sodipodi="http://sodipodi.sourceforge.net/DTD/sodipodi-0.dtd"
   xmlns:inkscape="http://www.inkscape.org/namespaces/inkscape"
   xml:space="preserve"
   width="28in"
   height="17in"
   version="1.1"
   style="shape-rendering:geometricPrecision; text-rendering:geometricPrecision; image-rendering:optimizeQuality; fill-rule:evenodd; clip-rule:evenodd"
   viewBox="0 0 28000 17000"
   id="svg3432"
   inkscape:version="0.91 r13725"
   sodipodi:docname="original.svg"><metadata
     id="metadata3488"><rdf:RDF><cc:Work
         rdf:about=""><dc:format>image/svg+xml</dc:format><dc:type
           rdf:resource="http://purl.org/dc/dcmitype/StillImage" /><dc:title></dc:title></cc:Work></rdf:RDF></metadata><sodipodi:namedview
     pagecolor="#ffffff"
     bordercolor="#666666"
     borderopacity="1"
     objecttolerance="10"
     gridtolerance="10"
     guidetolerance="10"
     inkscape:pageopacity="0"
     inkscape:pageshadow="2"
     inkscape:window-width="1855"
     inkscape:window-height="1056"
     id="namedview3486"
     showgrid="false"
     inkscape:zoom="0.60065359"
     inkscape:cx="1260"
     inkscape:cy="765"
     inkscape:window-x="65"
     inkscape:window-y="24"
     inkscape:window-maximized="1"
     inkscape:current-layer="svg3432" /><defs
     id="defs3434"><style
       type="text/css"
       id="style3436"><![CDATA[
    .str0 {stroke:white;stroke-width:3.33465}
    .fil5 {fill:none}
    .fil4 {fill:black}
    .fil0 {fill:#7F0000}
    .fil1 {fill:#C46A5B}
    .fil2 {fill:#D48A7C}
    .fil3 {fill:#EBC8C1}
   ]]></style></defs><g
     id="Layer_x0020_1"><metadata
       id="CorelCorpID_0Corel-Layer" /><polygon
       class="fil0"
       points="12944,4242 12944,7126 15442,8568 17940,7126 17955,5675 15442,7126 14193,6405 14193,4963 "
       id="polygon3440" /><polygon
       class="fil1"
       points="15442,2800 12944,4242 14193,4963 15442,4242 16691,4963 17940,4242 "
       id="polygon3442" /><polygon
       class="fil2"
       points="14193,6405 15442,5684 15442,4242 14193,4963 "
       id="polygon3444" /><polygon
       class="fil3"
       points="16691,6405 15442,5684 15442,4242 16691,4963 "
       id="polygon3446" /><polygon
       class="fil0"
       points="5461,4263 5461,7864 6710,8585 6710,4984 "
       id="polygon3448" /><polygon
       class="fil1"
       points="7959,2821 9208,3542 10457,2821 12955,4263 11706,4984 10457,4263 9208,4984 7959,4263 6710,4984 5461,4263 5469,2816 6721,3536 "
       id="polygon3450" /><polygon
       class="fil2"
       points="6710,4984 7959,5705 7959,7148 6710,6427 "
       id="polygon3452" /><polygon
       class="fil3"
       points="9208,4984 7959,5705 7959,7148 9208,6427 "
       id="polygon3454" /><polygon
       class="fil0"
       points="12955,4263 12955,7864 11706,8585 11706,4984 "
       id="polygon3456" /><polygon
       class="fil3"
       points="11706,4984 10457,5705 10457,7148 11706,6427 "
       id="polygon3458" /><polygon
       class="fil2"
       points="9208,4984 10457,5705 10457,7148 9208,6427 "
       id="polygon3460" /><polygon
       class="fil0"
       points="22840,8556 20342,9998 17844,8556 17843,7113 20342,8556 21591,7835 21591,6392 22840,7087 "
       id="polygon3462" /><polygon
       class="fil3"
       points="21591,6392 20342,7114 20342,8556 21591,7835 "
       id="polygon3464" /><polygon
       class="fil2"
       points="19093,6392 20342,7114 20342,8556 19093,7835 "
       id="polygon3466" /><polygon
       class="fil1"
       points="22840,4229 20342,2787 17844,4229 19036,4918 20342,4229 21591,4950 19093,6392 20342,7114 22840,5671 "
       id="polygon3468" /><polygon
       class="fil4"
       points="7987,13998 7987,11140 6643,12708 5299,11140 5299,13998 5745,13998 5745,12349 6643,13397 7537,12349 7537,13998 "
       id="polygon3470" /><path
       class="fil4"
       d="M9779 13998c112,0 221,-13 328,-38 107,-25 209,-63 308,-113 27,-12 53,-25 78,-39 25,-15 51,-30 76,-45l-250 -373c-15,10 -32,20 -49,30 -17,10 -36,20 -55,27 -135,69 -281,104 -435,104 -132,0 -257,-26 -376,-75 -118,-50 -224,-121 -318,-214 -93,-93 -164,-199 -214,-318 -50,-118 -75,-244 -75,-376 0,-132 26,-257 75,-376 50,-118 121,-224 214,-318 93,-93 199,-164 318,-214 118,-50 244,-75 376,-75 75,0 148,9 219,25 71,17 139,40 205,71l196 -404c-97,-46 -197,-81 -301,-104 -104,-23 -211,-35 -319,-35 -97,0 -191,10 -285,28 -93,19 -183,47 -270,83 -87,36 -168,80 -243,131 -76,51 -146,110 -211,177 -131,131 -234,281 -308,451 -37,89 -64,180 -83,274 -19,94 -28,189 -28,285 0,97 10,191 28,285 19,93 47,183 83,270 74,173 176,324 308,455 130,131 282,234 455,308 87,37 177,64 270,83 93,19 188,28 285,28z"
       id="path3472" /><path
       class="fil4"
       d="M11687 13998c99,0 194,-14 286,-43 92,-28 178,-71 257,-126 177,-131 300,-301 369,-509 69,-208 72,-419 8,-631 -31,-97 -77,-185 -137,-264 -60,-79 -132,-148 -217,-206 -96,-62 -204,-108 -324,-139l516 -940 -1475 0 0 446 720 0 -497 902 381 -4c4,0 8,0 12,0 159,1 289,30 391,89 102,59 171,143 206,254 17,54 25,111 24,171 -2,60 -12,120 -31,180 -20,60 -47,114 -82,163 -35,49 -76,91 -122,126 -50,35 -104,59 -162,73 -58,14 -121,18 -188,12 -85,-10 -175,-37 -270,-80 -95,-44 -192,-104 -293,-182l-270 354c133,102 266,183 398,241 132,59 263,95 392,109 34,3 70,4 108,4z"
       id="path3474" /><polygon
       class="fil4"
       points="15778,13998 15778,11140 14433,12708 13089,11140 13089,13998 13536,13998 13536,12349 14433,13397 15327,12349 15327,13998 "
       id="polygon3476" /><path
       class="fil4"
       d="M17285 11140l-1244 2858 493 0 262 -612 978 0 262 612 489 0 -1240 -2858zm-316 1845l316 -743 316 743 -632 0z"
       id="path3478" /><polygon
       class="fil4"
       points="20941,13998 19681,12515 20729,11140 20166,11140 19250,12319 19250,11140 18803,11140 18803,13998 19250,13998 19250,12704 20382,13998 "
       id="polygon3480" /><polygon
       class="fil4"
       points="21735,11540 23002,11540 23002,11140 21288,11140 21288,13998 23002,13998 23002,13594 21735,13594 21735,12707 22779,12707 22779,12303 21735,12303 "
       id="polygon3482" /><polygon
       class="fil5 str0"
       points="2,16998 28002,16998 28002,-2 2,-2 "
       id="polygon3484" /></g></svg>