<?xml version="1.0" encoding="UTF-8" standalone="no"?>
<!-- Creator: CorelDRAW X6 -->

<svg
   xmlns:dc="http://purl.org/dc/elements/1.1/"
   xmlns:cc="http://creativecommons.org/ns#"
   xmlns:rdf="http://www.w3.org/1999/02/22-rdf-syntax-ns#"
   xmlns:svg="http://www.w3.org/2000/svg"
   xmlns="http://www.w3.org/2000/svg"
   xmlns:sodipodi="http://sodipodi.sourceforge.net/DTD/sodipodi-0.dtd"
   xmlns:inkscape="http://www.inkscape.org/namespaces/inkscape"
   xml:space="preserve"
   width="17.379in"
   height="17.379in"
   version="1.1"
   style="clip-rule:evenodd;fill-rule:evenodd;image-rendering:optimizeQuality;shape-rendering:geometricPrecision;text-rendering:geometricPrecision"
   viewBox="0 0 17379 17378.999"
   id="svg3432"
   inkscape:version="0.91 r13725"
   sodipodi:docname="square.svg"
   inkscape:export-filename="/home/david/Pictures/logos/favicon.png"
   inkscape:export-xdpi="3.6826055"
   inkscape:export-ydpi="3.6826055"><metadata
     id="metadata3488"><rdf:RDF><cc:Work
         rdf:about=""><dc:format>image/svg+xml</dc:format><dc:type
           rdf:resource="http://purl.org/dc/dcmitype/StillImage" /><dc:title></dc:title></cc:Work></rdf:RDF></metadata><sodipodi:namedview
     pagecolor="#ffffff"
     bordercolor="#666666"
     borderopacity="1"
     objecttolerance="10"
     gridtolerance="10"
     guidetolerance="10"
     inkscape:pageopacity="0"
     inkscape:pageshadow="2"
     inkscape:window-width="1855"
     inkscape:window-height="1056"
     id="namedview3486"
     showgrid="false"
     inkscape:zoom="0.60065359"
     inkscape:cx="903.56731"
     inkscape:cy="913.63555"
     inkscape:window-x="65"
     inkscape:window-y="24"
     inkscape:window-maximized="1"
     inkscape:current-layer="svg3432"
     fit-margin-top="0"
     fit-margin-left="0"
     fit-margin-right="0"
     fit-margin-bottom="0" /><defs
     id="defs3434"><style
       type="text/css"
       id="style3436"><![CDATA[
    .str0 {stroke:white;stroke-width:3.33465}
    .fil5 {fill:none}
    .fil4 {fill:black}
    .fil0 {fill:#7F0000}
    .fil1 {fill:#C46A5B}
    .fil2 {fill:#D48A7C}
    .fil3 {fill:#EBC8C1}
   ]]></style></defs><g
     id="Layer_x0020_1"
     transform="translate(-5461.0007,7380.9998)"><metadata
       id="CorelCorpID_0Corel-Layer" /><polygon
       class="fil0"
       points="12944,4242 12944,7126 15442,8568 17940,7126 17955,5675 15442,7126 14193,6405 14193,4963 "
       id="polygon3440"
       style="fill:#7f0000"
       transform="translate(0,-5084.001)" /><polygon
       class="fil1"
       points="16691,4963 17940,4242 15442,2800 12944,4242 14193,4963 15442,4242 "
       id="polygon3442"
       style="fill:#c46a5b"
       transform="translate(0,-5084.001)" /><polygon
       class="fil2"
       points="14193,6405 15442,5684 15442,4242 14193,4963 "
       id="polygon3444"
       style="fill:#d48a7c"
       transform="translate(0,-5084.001)" /><polygon
       class="fil3"
       points="16691,6405 15442,5684 15442,4242 16691,4963 "
       id="polygon3446"
       style="fill:#ebc8c1"
       transform="translate(0,-5084.001)" /><polygon
       class="fil0"
       points="5461,4263 5461,7864 6710,8585 6710,4984 "
       id="polygon3448"
       style="fill:#7f0000"
       transform="translate(0,-5084.001)" /><polygon
       class="fil1"
       points="11706,4984 10457,4263 9208,4984 7959,4263 6710,4984 5461,4263 5469,2816 6721,3536 7959,2821 9208,3542 10457,2821 12955,4263 "
       id="polygon3450"
       style="fill:#c46a5b"
       transform="translate(0,-5084.001)" /><polygon
       class="fil2"
       points="6710,4984 7959,5705 7959,7148 6710,6427 "
       id="polygon3452"
       style="fill:#d48a7c"
       transform="translate(0,-5084.001)" /><polygon
       class="fil3"
       points="9208,4984 7959,5705 7959,7148 9208,6427 "
       id="polygon3454"
       style="fill:#ebc8c1"
       transform="translate(0,-5084.001)" /><polygon
       class="fil0"
       points="12955,4263 12955,7864 11706,8585 11706,4984 "
       id="polygon3456"
       style="fill:#7f0000"
       transform="translate(0,-5084.001)" /><polygon
       class="fil3"
       points="11706,4984 10457,5705 10457,7148 11706,6427 "
       id="polygon3458"
       style="fill:#ebc8c1"
       transform="translate(0,-5084.001)" /><polygon
       class="fil2"
       points="9208,4984 10457,5705 10457,7148 9208,6427 "
       id="polygon3460"
       style="fill:#d48a7c"
       transform="translate(0,-5084.001)" /><polygon
       class="fil0"
       points="22840,8556 20342,9998 17844,8556 17843,7113 20342,8556 21591,7835 21591,6392 22840,7087 "
       id="polygon3462"
       style="fill:#7f0000"
       transform="translate(0,-5084.001)" /><polygon
       class="fil3"
       points="21591,6392 20342,7114 20342,8556 21591,7835 "
       id="polygon3464"
       style="fill:#ebc8c1"
       transform="translate(0,-5084.001)" /><polygon
       class="fil2"
       points="19093,6392 20342,7114 20342,8556 19093,7835 "
       id="polygon3466"
       style="fill:#d48a7c"
       transform="translate(0,-5084.001)" /><polygon
       class="fil1"
       points="20342,7114 22840,5671 22840,4229 20342,2787 17844,4229 19036,4918 20342,4229 21591,4950 19093,6392 "
       id="polygon3468"
       style="fill:#c46a5b"
       transform="translate(0,-5084.001)" /></g></svg>