<?xml version="1.0" encoding="UTF-8" standalone="no"?>
<!-- Creator: CorelDRAW X6 -->

<svg
   xmlns:dc="http://purl.org/dc/elements/1.1/"
   xmlns:cc="http://creativecommons.org/ns#"
   xmlns:rdf="http://www.w3.org/1999/02/22-rdf-syntax-ns#"
   xmlns:svg="http://www.w3.org/2000/svg"
   xmlns="http://www.w3.org/2000/svg"
   xmlns:sodipodi="http://sodipodi.sourceforge.net/DTD/sodipodi-0.dtd"
   xmlns:inkscape="http://www.inkscape.org/namespaces/inkscape"
   xml:space="preserve"
   width="17.703001in"
   height="11.211in"
   version="1.1"
   style="clip-rule:evenodd;fill-rule:evenodd;image-rendering:optimizeQuality;shape-rendering:geometricPrecision;text-rendering:geometricPrecision"
   viewBox="0 0 17703.001 11211"
   id="svg3432"
   inkscape:version="0.91 r13725"
   sodipodi:docname="whiteLetters.svg"><metadata
     id="metadata3488"><rdf:RDF><cc:Work
         rdf:about=""><dc:format>image/svg+xml</dc:format><dc:type
           rdf:resource="http://purl.org/dc/dcmitype/StillImage" /><dc:title></dc:title></cc:Work></rdf:RDF></metadata><sodipodi:namedview
     pagecolor="#ffffff"
     bordercolor="#666666"
     borderopacity="1"
     objecttolerance="10"
     gridtolerance="10"
     guidetolerance="10"
     inkscape:pageopacity="0"
     inkscape:pageshadow="2"
     inkscape:window-width="1855"
     inkscape:window-height="1056"
     id="namedview3486"
     showgrid="false"
     inkscape:zoom="0.60065359"
     inkscape:cx="664.38244"
     inkscape:cy="541.10022"
     inkscape:window-x="65"
     inkscape:window-y="24"
     inkscape:window-maximized="1"
     inkscape:current-layer="Layer_x0020_1"
     fit-margin-top="0"
     fit-margin-left="0"
     fit-margin-right="0"
     fit-margin-bottom="0" /><defs
     id="defs3434"><style
       type="text/css"
       id="style3436"><![CDATA[
    .str0 {stroke:white;stroke-width:3.33465}
    .fil5 {fill:none}
    .fil4 {fill:black}
    .fil0 {fill:#7F0000}
    .fil1 {fill:#C46A5B}
    .fil2 {fill:#D48A7C}
    .fil3 {fill:#EBC8C1}
   ]]></style></defs><g
     id="Layer_x0020_1"
     transform="translate(-5299,-2787)"><metadata
       id="CorelCorpID_0Corel-Layer" /><polygon
       class="fil0"
       points="17940,7126 17955,5675 15442,7126 14193,6405 14193,4963 12944,4242 12944,7126 15442,8568 "
       id="polygon3440"
       style="fill:#7f0000" /><polygon
       class="fil1"
       points="15442,4242 16691,4963 17940,4242 15442,2800 12944,4242 14193,4963 "
       id="polygon3442"
       style="fill:#c46a5b" /><polygon
       class="fil2"
       points="14193,4963 14193,6405 15442,5684 15442,4242 "
       id="polygon3444"
       style="fill:#d48a7c" /><polygon
       class="fil3"
       points="16691,4963 16691,6405 15442,5684 15442,4242 "
       id="polygon3446"
       style="fill:#ebc8c1" /><polygon
       class="fil0"
       points="6710,4984 5461,4263 5461,7864 6710,8585 "
       id="polygon3448"
       style="fill:#7f0000" /><polygon
       class="fil1"
       points="12955,4263 11706,4984 10457,4263 9208,4984 7959,4263 6710,4984 5461,4263 5469,2816 6721,3536 7959,2821 9208,3542 10457,2821 "
       id="polygon3450"
       style="fill:#c46a5b" /><polygon
       class="fil2"
       points="6710,6427 6710,4984 7959,5705 7959,7148 "
       id="polygon3452"
       style="fill:#d48a7c" /><polygon
       class="fil3"
       points="9208,6427 9208,4984 7959,5705 7959,7148 "
       id="polygon3454"
       style="fill:#ebc8c1" /><polygon
       class="fil0"
       points="11706,4984 12955,4263 12955,7864 11706,8585 "
       id="polygon3456"
       style="fill:#7f0000" /><polygon
       class="fil3"
       points="11706,6427 11706,4984 10457,5705 10457,7148 "
       id="polygon3458"
       style="fill:#ebc8c1" /><polygon
       class="fil2"
       points="9208,6427 9208,4984 10457,5705 10457,7148 "
       id="polygon3460"
       style="fill:#d48a7c" /><polygon
       class="fil0"
       points="17843,7113 20342,8556 21591,7835 21591,6392 22840,7087 22840,8556 20342,9998 17844,8556 "
       id="polygon3462"
       style="fill:#7f0000" /><polygon
       class="fil3"
       points="21591,7835 21591,6392 20342,7114 20342,8556 "
       id="polygon3464"
       style="fill:#ebc8c1" /><polygon
       class="fil2"
       points="19093,7835 19093,6392 20342,7114 20342,8556 "
       id="polygon3466"
       style="fill:#d48a7c" /><polygon
       class="fil1"
       points="19036,4918 20342,4229 21591,4950 19093,6392 20342,7114 22840,5671 22840,4229 20342,2787 17844,4229 "
       id="polygon3468"
       style="fill:#c46a5b" /><polygon
       class="fil4"
       points="5299,11140 5299,13998 5745,13998 5745,12349 6643,13397 7537,12349 7537,13998 7987,13998 7987,11140 6643,12708 "
       id="polygon3470"
       style="fill:#ffffff;fill-opacity:1" /><path
       class="fil4"
       d="m 9779,13998 c 112,0 221,-13 328,-38 107,-25 209,-63 308,-113 27,-12 53,-25 78,-39 25,-15 51,-30 76,-45 l -250,-373 c -15,10 -32,20 -49,30 -17,10 -36,20 -55,27 -135,69 -281,104 -435,104 -132,0 -257,-26 -376,-75 -118,-50 -224,-121 -318,-214 -93,-93 -164,-199 -214,-318 -50,-118 -75,-244 -75,-376 0,-132 26,-257 75,-376 50,-118 121,-224 214,-318 93,-93 199,-164 318,-214 118,-50 244,-75 376,-75 75,0 148,9 219,25 71,17 139,40 205,71 l 196,-404 c -97,-46 -197,-81 -301,-104 -104,-23 -211,-35 -319,-35 -97,0 -191,10 -285,28 -93,19 -183,47 -270,83 -87,36 -168,80 -243,131 -76,51 -146,110 -211,177 -131,131 -234,281 -308,451 -37,89 -64,180 -83,274 -19,94 -28,189 -28,285 0,97 10,191 28,285 19,93 47,183 83,270 74,173 176,324 308,455 130,131 282,234 455,308 87,37 177,64 270,83 93,19 188,28 285,28 z"
       id="path3472"
       inkscape:connector-curvature="0"
       style="fill:#ffffff;fill-opacity:1" /><path
       class="fil4"
       d="m 11687,13998 c 99,0 194,-14 286,-43 92,-28 178,-71 257,-126 177,-131 300,-301 369,-509 69,-208 72,-419 8,-631 -31,-97 -77,-185 -137,-264 -60,-79 -132,-148 -217,-206 -96,-62 -204,-108 -324,-139 l 516,-940 -1475,0 0,446 720,0 -497,902 381,-4 c 4,0 8,0 12,0 159,1 289,30 391,89 102,59 171,143 206,254 17,54 25,111 24,171 -2,60 -12,120 -31,180 -20,60 -47,114 -82,163 -35,49 -76,91 -122,126 -50,35 -104,59 -162,73 -58,14 -121,18 -188,12 -85,-10 -175,-37 -270,-80 -95,-44 -192,-104 -293,-182 l -270,354 c 133,102 266,183 398,241 132,59 263,95 392,109 34,3 70,4 108,4 z"
       id="path3474"
       inkscape:connector-curvature="0"
       style="fill:#ffffff;fill-opacity:1" /><polygon
       class="fil4"
       points="13089,11140 13089,13998 13536,13998 13536,12349 14433,13397 15327,12349 15327,13998 15778,13998 15778,11140 14433,12708 "
       id="polygon3476"
       style="fill:#ffffff;fill-opacity:1" /><path
       class="fil4"
       d="m 17285,11140 -1244,2858 493,0 262,-612 978,0 262,612 489,0 -1240,-2858 z m -316,1845 316,-743 316,743 -632,0 z"
       id="path3478"
       inkscape:connector-curvature="0"
       style="fill:#ffffff;fill-opacity:1" /><polygon
       class="fil4"
       points="20166,11140 19250,12319 19250,11140 18803,11140 18803,13998 19250,13998 19250,12704 20382,13998 20941,13998 19681,12515 20729,11140 "
       id="polygon3480"
       style="fill:#ffffff;fill-opacity:1" /><polygon
       class="fil4"
       points="21288,11140 21288,13998 23002,13998 23002,13594 21735,13594 21735,12707 22779,12707 22779,12303 21735,12303 21735,11540 23002,11540 23002,11140 "
       id="polygon3482"
       style="fill:#ffffff;fill-opacity:1" /><polygon
       class="fil5 str0"
       points="2,-2 2,16998 28002,16998 28002,-2 "
       id="polygon3484"
       style="fill:none;stroke:#ffffff;stroke-width:3.33465004" /></g></svg>